<svg
    width="16"
    height="16"
    viewBox="0 0 16 16"
    fill="none"
    xmlns="http://www.w3.org/2000/svg"
>
    <path
        fill-rule="evenodd"
        clip-rule="evenodd"
        d="M12.21 3.07341L8.42993 5.89348L8.3999 5.9135C8.1399 6.0935 8 6.36346 8 6.62346V9.37346C8 9.63346 8.1399 9.90341 8.3999 10.0734L8.42993 10.0934L12.21 12.9235C12.38 13.0235 12.58 13.0234 12.75 12.9434C12.93 12.8534 13 12.7234 13 12.5834V3.40349C13 3.27349 12.93 3.14351 12.75 3.05351C12.58 2.97351 12.38 2.97341 12.21 3.07341ZM11.0901 1.4135C12.6601 0.383496 15 1.36349 15 3.40349V12.5834C15 14.6334 12.6601 15.6134 11.0901 14.5834L11.0601 14.5634L7.28003 11.7334C6.98003 11.5334 6.72002 11.2835 6.52002 10.9935H5.70996L5.97998 12.4534C6.08998 12.9934 5.72994 13.5235 5.18994 13.6235C4.63994 13.7235 4.12002 13.3734 4.02002 12.8234L3.66992 10.9935H3.45996C3.12996 10.9935 2.81 10.9334 2.5 10.8134C1.62 10.4534 1 9.60346 1 8.62346V7.37346C1 6.38346 1.62 5.54339 2.5 5.18339C2.81 5.05339 3.12996 4.99345 3.45996 4.99345H6.52002C6.72002 4.71345 6.98003 4.46347 7.28003 4.26347L11.0601 1.43339L11.0901 1.4135ZM6 6.99345H3.45996C3.24996 6.99345 3 7.13346 3 7.37346V8.62346C3 8.85346 3.24996 8.99345 3.45996 8.99345H6V6.99345Z"
        fill="white"
    />
    <path
        d="M8.70728 6.3095L8.7183 6.30216L8.72892 6.29424L12.4762 3.4986C12.4817 3.49683 12.4874 3.49594 12.4933 3.49578C12.4954 3.49572 12.4977 3.49576 12.5 3.4959V12.501C12.4977 12.5012 12.4954 12.5012 12.4933 12.5011C12.4874 12.501 12.4819 12.5001 12.4764 12.4984L8.7296 9.69318L8.71865 9.68498L8.70728 9.6774L8.67725 9.65738L8.67726 9.65737L8.67353 9.65492C8.54708 9.57224 8.5 9.4557 8.5 9.37346V6.62346C8.5 6.54352 8.54555 6.42212 8.68148 6.3267L8.70728 6.3095ZM10.8158 0.995434L10.8158 0.995429L10.8139 0.99669L10.7839 1.01659L10.7719 1.02453L10.7604 1.03314L6.99089 3.85534C6.72274 4.03566 6.48076 4.25144 6.27612 4.49345H3.45996C3.06822 4.49345 2.6828 4.56487 2.30866 4.72145C1.25631 5.15286 0.5 6.16597 0.5 7.37346V8.62346C0.5 9.82054 1.25613 10.8448 2.31068 11.2762L2.31065 11.2763L2.3195 11.2797C2.6224 11.3969 2.93487 11.4662 3.25525 11.4869L3.52853 12.9153C3.68038 13.7429 4.46592 14.2633 5.27939 14.1154L5.28099 14.1151C6.09301 13.9647 6.63385 13.1721 6.4709 12.3585L6.32185 11.5526C6.5172 11.7778 6.74341 11.9752 6.9909 12.1416L10.7604 14.9637L10.7713 14.9718L10.7827 14.9794L10.8127 14.9994L10.8127 14.9995L10.8158 15.0015C11.7597 15.6207 12.9243 15.6307 13.849 15.1897C14.7844 14.7437 15.5 13.8223 15.5 12.5834V3.40349C15.5 2.16855 14.7832 1.24987 13.8484 0.805639C12.924 0.366366 11.7597 0.376206 10.8158 0.995434ZM3.5 7.49345H5.5V8.49345H3.5V7.49345Z"
        stroke="black"
        stroke-opacity="0.15"
    />
</svg>