<svg
    width="16"
    height="17"
    viewBox="0 0 16 17"
    fill="none"
    xmlns="http://www.w3.org/2000/svg"
>
    <path
        fill-rule="evenodd"
        clip-rule="evenodd"
        d="M13 12V3H3V13.38L5.33997 12.21C5.61997 12.07 5.92999 12 6.23999 12H13ZM15 3V12C15 13.1 14.1 14 13 14H6.23999L3.89001 15.17C2.56001 15.84 1 14.87 1 13.38V3C1 1.9 1.9 1 3 1H13C14.1 1 15 1.9 15 3ZM5 6C5 5.45 5.45 5 6 5H10C10.55 5 11 5.45 11 6C11 6.55 10.55 7 10 7H6C5.45 7 5 6.55 5 6ZM6 8C5.45 8 5 8.45 5 9C5 9.55 5.45 10 6 10H8C8.55 10 9 9.55 9 9C9 8.45 8.55 8 8 8H6Z"
        fill="white"
    />
    <path
        d="M3.5 12.571V3.5H12.5V11.5H6.23999C5.85547 11.5 5.46851 11.5867 5.11636 11.7627L5.11635 11.7628L3.5 12.571ZM15.5 12V3C15.5 1.62386 14.3761 0.5 13 0.5H3C1.62386 0.5 0.5 1.62386 0.5 3V13.38C0.5 15.238 2.448 16.4553 4.11378 15.6172C4.11418 15.617 4.11457 15.6168 4.11496 15.6166L6.35758 14.5H13C14.3761 14.5 15.5 13.3761 15.5 12ZM6 4.5C5.17386 4.5 4.5 5.17386 4.5 6C4.5 6.82614 5.17386 7.5 6 7.5C5.17386 7.5 4.5 8.17386 4.5 9C4.5 9.82614 5.17386 10.5 6 10.5H8C8.82614 10.5 9.5 9.82614 9.5 9C9.5 8.17386 8.82614 7.5 8 7.5H10C10.8261 7.5 11.5 6.82614 11.5 6C11.5 5.17386 10.8261 4.5 10 4.5H6Z"
        stroke="black"
        stroke-opacity="0.15"
    />
</svg>