<svg width="11" height="12" viewBox="0 0 11 12" fill="none" xmlns="http://www.w3.org/2000/svg">
<path d="M10.967 11.1375L7.39609 7.24197C7.95022 6.46047 8.24996 5.50498 8.24996 4.49998C8.24996 3.29699 7.81959 2.16899 7.04134 1.31849C6.2631 0.467998 5.22635 0 4.12498 0C3.02361 0 1.98687 0.469498 1.20862 1.31849C0.428998 2.16749 0 3.29699 0 4.49998C0 5.70148 0.430373 6.83247 1.20862 7.68147C1.98687 8.53196 3.02224 8.99996 4.12498 8.99996C5.04623 8.99996 5.92072 8.67296 6.6371 8.06996L10.208 11.9639C10.2184 11.9754 10.2309 11.9844 10.2445 11.9906C10.2582 11.9968 10.2729 12 10.2877 12C10.3025 12 10.3172 11.9968 10.3309 11.9906C10.3446 11.9844 10.357 11.9754 10.3675 11.9639L10.967 11.3115C10.9774 11.3 10.9857 11.2865 10.9914 11.2715C10.9971 11.2566 11 11.2406 11 11.2245C11 11.2083 10.9971 11.1923 10.9914 11.1774C10.9857 11.1624 10.9774 11.1489 10.967 11.1375ZM6.30297 6.87597C5.71998 7.51047 4.94723 7.85997 4.12498 7.85997C3.30274 7.85997 2.52999 7.51047 1.94699 6.87597C1.36537 6.23997 1.045 5.39698 1.045 4.49998C1.045 3.60298 1.36537 2.75849 1.94699 2.12399C2.52999 1.48949 3.30274 1.14 4.12498 1.14C4.94723 1.14 5.72135 1.48799 6.30297 2.12399C6.8846 2.75999 7.20497 3.60298 7.20497 4.49998C7.20497 5.39698 6.8846 6.24147 6.30297 6.87597Z" fill="#929191"/>
</svg>
